<svg xmlns="http://www.w3.org/2000/svg" width="320" height="320" viewBox="0 0 320 320">
  <g fill="#000" fill-rule="evenodd" stroke="none">
    <path d="M 42.0 235.0 L 42.0 238.0 L 41.0 239.0 L 41.0 242.0 L 40.0 243.0 L 40.0 246.0 L 42.0 248.0 L 42.0 249.0 L 43.0 250.0 L 43.0 253.0 L 44.0 254.0 L 44.0 257.0 L 45.0 258.0 L 45.0 260.0 L 47.0 262.0 L 47.0 263.0 L 50.0 264.0 L 49.0 264.0 L 47.0 262.0 L 47.0 261.0 L 45.0 258.0 L 45.0 256.0 L 44.0 255.0 L 44.0 252.0 L 43.0 251.0 L 43.0 249.0 L 42.0 248.0 L 42.0 247.0 L 40.0 245.0 L 40.0 244.0 L 41.0 243.0 L 42.0 243.0 L 46.0 247.0 L 46.0 248.0 L 47.0 249.0 L 48.0 252.0 L 52.0 256.0 L 54.0 256.0 L 53.0 256.0 L 48.0 251.0 L 48.0 250.0 L 47.0 249.0 L 46.0 246.0 L 44.0 244.0 L 43.0 244.0 L 42.0 243.0 Z M 93.0 182.0 L 93.0 183.0 L 92.0 184.0 L 92.0 186.0 L 91.0 187.0 L 91.0 192.0 L 90.0 193.0 L 90.0 201.0 L 91.0 202.0 L 91.0 207.0 L 92.0 208.0 L 92.0 210.0 L 91.0 211.0 L 91.0 218.0 L 90.0 219.0 L 90.0 227.0 L 91.0 228.0 L 91.0 231.0 L 92.0 232.0 L 92.0 233.0 L 92.0 231.0 L 91.0 230.0 L 91.0 215.0 L 92.0 214.0 L 92.0 204.0 L 91.0 203.0 L 91.0 188.0 L 92.0 187.0 L 92.0 185.0 L 93.0 184.0 Z M 35.0 112.0 L 37.0 112.0 L 38.0 111.0 L 43.0 111.0 L 44.0 110.0 L 47.0 110.0 L 48.0 109.0 L 56.0 109.0 L 57.0 108.0 L 63.0 108.0 L 64.0 107.0 L 68.0 107.0 L 69.0 108.0 L 72.0 108.0 L 73.0 109.0 L 76.0 109.0 L 77.0 110.0 L 82.0 110.0 L 83.0 111.0 L 88.0 111.0 L 89.0 112.0 L 94.0 112.0 L 95.0 113.0 L 99.0 113.0 L 100.0 114.0 L 102.0 114.0 L 103.0 115.0 L 106.0 115.0 L 109.0 117.0 L 111.0 117.0 L 112.0 118.0 L 114.0 118.0 L 117.0 120.0 L 119.0 120.0 L 120.0 121.0 L 121.0 121.0 L 122.0 122.0 L 125.0 123.0 L 128.0 126.0 L 131.0 127.0 L 133.0 129.0 L 136.0 130.0 L 138.0 132.0 L 139.0 132.0 L 141.0 134.0 L 142.0 134.0 L 145.0 137.0 L 146.0 137.0 L 148.0 139.0 L 149.0 139.0 L 153.0 143.0 L 154.0 143.0 L 161.0 150.0 L 162.0 150.0 L 172.0 160.0 L 173.0 160.0 L 175.0 162.0 L 176.0 162.0 L 177.0 163.0 L 178.0 163.0 L 179.0 164.0 L 182.0 165.0 L 184.0 167.0 L 187.0 168.0 L 190.0 171.0 L 190.0 172.0 L 185.0 177.0 L 183.0 177.0 L 182.0 178.0 L 180.0 178.0 L 179.0 179.0 L 164.0 179.0 L 163.0 178.0 L 159.0 178.0 L 158.0 177.0 L 155.0 177.0 L 154.0 176.0 L 153.0 176.0 L 149.0 172.0 L 148.0 172.0 L 146.0 170.0 L 146.0 169.0 L 144.0 167.0 L 144.0 166.0 L 142.0 163.0 L 142.0 161.0 L 143.0 160.0 L 141.0 158.0 L 140.0 158.0 L 138.0 156.0 L 137.0 156.0 L 134.0 153.0 L 133.0 153.0 L 130.0 150.0 L 129.0 150.0 L 119.0 140.0 L 119.0 139.0 L 118.0 138.0 L 117.0 138.0 L 116.0 137.0 L 114.0 137.0 L 113.0 136.0 L 111.0 136.0 L 110.0 135.0 L 107.0 135.0 L 106.0 134.0 L 104.0 134.0 L 103.0 133.0 L 101.0 133.0 L 100.0 132.0 L 99.0 132.0 L 98.0 131.0 L 95.0 130.0 L 93.0 128.0 L 92.0 128.0 L 91.0 127.0 L 88.0 126.0 L 86.0 124.0 L 84.0 124.0 L 79.0 121.0 L 77.0 121.0 L 76.0 120.0 L 74.0 120.0 L 73.0 119.0 L 71.0 119.0 L 70.0 118.0 L 64.0 118.0 L 63.0 119.0 L 61.0 119.0 L 60.0 120.0 L 44.0 120.0 L 43.0 121.0 L 42.0 121.0 L 41.0 120.0 L 41.0 119.0 L 42.0 118.0 L 45.0 117.0 L 43.0 117.0 L 40.0 120.0 L 40.0 121.0 L 45.0 121.0 L 46.0 120.0 L 53.0 120.0 L 54.0 121.0 L 59.0 121.0 L 60.0 120.0 L 62.0 120.0 L 63.0 119.0 L 65.0 119.0 L 66.0 118.0 L 67.0 118.0 L 68.0 119.0 L 71.0 119.0 L 72.0 120.0 L 74.0 120.0 L 75.0 121.0 L 77.0 121.0 L 80.0 123.0 L 82.0 123.0 L 83.0 124.0 L 84.0 124.0 L 85.0 125.0 L 86.0 125.0 L 87.0 126.0 L 90.0 127.0 L 92.0 129.0 L 93.0 129.0 L 94.0 130.0 L 95.0 130.0 L 96.0 131.0 L 97.0 131.0 L 102.0 134.0 L 104.0 134.0 L 105.0 135.0 L 107.0 135.0 L 108.0 136.0 L 112.0 136.0 L 113.0 137.0 L 115.0 137.0 L 116.0 138.0 L 117.0 138.0 L 120.0 141.0 L 120.0 142.0 L 128.0 150.0 L 129.0 150.0 L 132.0 153.0 L 133.0 153.0 L 136.0 156.0 L 137.0 156.0 L 141.0 160.0 L 141.0 162.0 L 142.0 163.0 L 142.0 164.0 L 143.0 165.0 L 144.0 168.0 L 150.0 174.0 L 150.0 175.0 L 148.0 178.0 L 145.0 178.0 L 141.0 174.0 L 140.0 174.0 L 138.0 172.0 L 137.0 172.0 L 134.0 170.0 L 131.0 170.0 L 128.0 167.0 L 126.0 167.0 L 125.0 166.0 L 113.0 166.0 L 112.0 167.0 L 109.0 168.0 L 110.0 168.0 L 113.0 166.0 L 122.0 166.0 L 123.0 167.0 L 126.0 167.0 L 127.0 168.0 L 126.0 169.0 L 129.0 169.0 L 130.0 170.0 L 132.0 170.0 L 133.0 171.0 L 135.0 171.0 L 136.0 172.0 L 137.0 172.0 L 139.0 174.0 L 140.0 174.0 L 145.0 179.0 L 145.0 180.0 L 146.0 181.0 L 146.0 188.0 L 145.0 189.0 L 144.0 192.0 L 135.0 201.0 L 134.0 201.0 L 133.0 202.0 L 131.0 202.0 L 127.0 206.0 L 120.0 206.0 L 119.0 207.0 L 118.0 206.0 L 118.0 200.0 L 112.0 194.0 L 111.0 194.0 L 108.0 191.0 L 108.0 188.0 L 107.0 187.0 L 107.0 182.0 L 106.0 181.0 L 106.0 180.0 L 106.0 183.0 L 107.0 184.0 L 107.0 191.0 L 108.0 192.0 L 108.0 193.0 L 111.0 194.0 L 118.0 201.0 L 118.0 204.0 L 117.0 205.0 L 117.0 207.0 L 118.0 208.0 L 119.0 208.0 L 120.0 207.0 L 125.0 207.0 L 126.0 206.0 L 128.0 206.0 L 131.0 203.0 L 134.0 203.0 L 135.0 202.0 L 136.0 202.0 L 137.0 203.0 L 139.0 203.0 L 140.0 204.0 L 140.0 208.0 L 139.0 209.0 L 139.0 211.0 L 136.0 214.0 L 135.0 214.0 L 135.0 216.0 L 133.0 218.0 L 132.0 218.0 L 127.0 223.0 L 127.0 224.0 L 126.0 225.0 L 126.0 226.0 L 123.0 231.0 L 123.0 233.0 L 122.0 234.0 L 122.0 235.0 L 118.0 239.0 L 118.0 240.0 L 117.0 241.0 L 116.0 241.0 L 113.0 244.0 L 112.0 244.0 L 110.0 246.0 L 110.0 247.0 L 107.0 250.0 L 106.0 250.0 L 107.0 251.0 L 103.0 255.0 L 101.0 253.0 L 101.0 254.0 L 102.0 255.0 L 101.0 256.0 L 86.0 256.0 L 85.0 257.0 L 81.0 257.0 L 80.0 258.0 L 63.0 258.0 L 62.0 257.0 L 56.0 257.0 L 61.0 257.0 L 62.0 258.0 L 71.0 258.0 L 72.0 259.0 L 75.0 259.0 L 76.0 258.0 L 82.0 258.0 L 83.0 257.0 L 90.0 257.0 L 91.0 256.0 L 96.0 256.0 L 97.0 257.0 L 102.0 257.0 L 108.0 251.0 L 108.0 250.0 L 118.0 240.0 L 119.0 240.0 L 119.0 239.0 L 122.0 236.0 L 122.0 235.0 L 123.0 234.0 L 123.0 232.0 L 124.0 231.0 L 124.0 230.0 L 125.0 229.0 L 125.0 228.0 L 126.0 227.0 L 127.0 224.0 L 133.0 218.0 L 134.0 218.0 L 137.0 215.0 L 138.0 212.0 L 140.0 210.0 L 141.0 210.0 L 150.0 219.0 L 150.0 220.0 L 162.0 232.0 L 161.0 233.0 L 158.0 233.0 L 157.0 234.0 L 152.0 234.0 L 151.0 235.0 L 148.0 235.0 L 147.0 236.0 L 146.0 236.0 L 144.0 238.0 L 144.0 240.0 L 143.0 241.0 L 142.0 241.0 L 142.0 242.0 L 140.0 244.0 L 140.0 245.0 L 137.0 248.0 L 137.0 249.0 L 124.0 262.0 L 123.0 262.0 L 119.0 266.0 L 118.0 266.0 L 116.0 268.0 L 115.0 268.0 L 113.0 270.0 L 112.0 270.0 L 109.0 273.0 L 108.0 273.0 L 107.0 274.0 L 83.0 274.0 L 82.0 273.0 L 78.0 273.0 L 77.0 272.0 L 75.0 272.0 L 74.0 271.0 L 72.0 271.0 L 71.0 270.0 L 68.0 270.0 L 67.0 269.0 L 65.0 269.0 L 64.0 268.0 L 62.0 268.0 L 63.0 268.0 L 64.0 269.0 L 66.0 269.0 L 67.0 270.0 L 69.0 270.0 L 70.0 271.0 L 72.0 271.0 L 73.0 272.0 L 76.0 272.0 L 77.0 273.0 L 79.0 273.0 L 80.0 274.0 L 86.0 274.0 L 87.0 275.0 L 101.0 275.0 L 102.0 274.0 L 109.0 274.0 L 112.0 271.0 L 113.0 271.0 L 116.0 268.0 L 117.0 268.0 L 120.0 265.0 L 121.0 265.0 L 124.0 262.0 L 125.0 262.0 L 132.0 255.0 L 133.0 255.0 L 133.0 254.0 L 137.0 250.0 L 137.0 249.0 L 140.0 246.0 L 142.0 246.0 L 143.0 245.0 L 146.0 245.0 L 147.0 244.0 L 150.0 244.0 L 151.0 243.0 L 153.0 243.0 L 154.0 242.0 L 158.0 242.0 L 159.0 241.0 L 162.0 241.0 L 156.0 241.0 L 155.0 242.0 L 152.0 242.0 L 151.0 243.0 L 149.0 243.0 L 148.0 244.0 L 145.0 244.0 L 144.0 245.0 L 142.0 245.0 L 141.0 244.0 L 142.0 243.0 L 142.0 242.0 L 144.0 240.0 L 144.0 239.0 L 147.0 236.0 L 149.0 236.0 L 150.0 235.0 L 154.0 235.0 L 155.0 234.0 L 161.0 234.0 L 162.0 233.0 L 164.0 233.0 L 169.0 236.0 L 177.0 236.0 L 178.0 235.0 L 182.0 235.0 L 184.0 237.0 L 183.0 238.0 L 172.0 238.0 L 171.0 239.0 L 166.0 239.0 L 166.0 240.0 L 180.0 240.0 L 180.0 239.0 L 181.0 238.0 L 182.0 239.0 L 182.0 240.0 L 186.0 240.0 L 187.0 241.0 L 188.0 241.0 L 193.0 246.0 L 194.0 246.0 L 195.0 247.0 L 195.0 248.0 L 199.0 252.0 L 199.0 253.0 L 202.0 256.0 L 200.0 258.0 L 197.0 258.0 L 187.0 264.0 L 179.0 264.0 L 178.0 263.0 L 174.0 263.0 L 173.0 262.0 L 172.0 263.0 L 169.0 263.0 L 165.0 267.0 L 164.0 267.0 L 163.0 268.0 L 160.0 269.0 L 158.0 271.0 L 158.0 272.0 L 157.0 273.0 L 157.0 275.0 L 156.0 276.0 L 155.0 275.0 L 154.0 276.0 L 143.0 276.0 L 142.0 275.0 L 126.0 275.0 L 125.0 276.0 L 121.0 276.0 L 120.0 277.0 L 118.0 277.0 L 117.0 278.0 L 114.0 278.0 L 113.0 279.0 L 110.0 279.0 L 109.0 280.0 L 104.0 280.0 L 103.0 281.0 L 51.0 281.0 L 50.0 282.0 L 40.0 282.0 L 39.0 283.0 L 34.0 283.0 L 33.0 284.0 L 32.0 283.0 L 28.0 283.0 L 25.0 280.0 L 25.0 278.0 L 24.0 277.0 L 24.0 273.0 L 25.0 272.0 L 25.0 269.0 L 26.0 268.0 L 26.0 263.0 L 24.0 261.0 L 25.0 260.0 L 25.0 259.0 L 24.0 258.0 L 24.0 254.0 L 25.0 253.0 L 24.0 252.0 L 24.0 251.0 L 25.0 250.0 L 25.0 246.0 L 28.0 243.0 L 28.0 241.0 L 29.0 240.0 L 29.0 239.0 L 32.0 236.0 L 32.0 235.0 L 34.0 233.0 L 35.0 233.0 L 36.0 232.0 L 36.0 231.0 L 37.0 230.0 L 39.0 230.0 L 40.0 229.0 L 38.0 229.0 L 37.0 230.0 L 36.0 230.0 L 35.0 231.0 L 35.0 232.0 L 34.0 233.0 L 33.0 233.0 L 33.0 234.0 L 28.0 239.0 L 28.0 241.0 L 27.0 242.0 L 27.0 243.0 L 24.0 246.0 L 24.0 247.0 L 25.0 248.0 L 23.0 251.0 L 23.0 252.0 L 24.0 253.0 L 24.0 254.0 L 23.0 255.0 L 24.0 256.0 L 24.0 257.0 L 23.0 258.0 L 24.0 259.0 L 24.0 262.0 L 26.0 264.0 L 26.0 267.0 L 25.0 268.0 L 25.0 270.0 L 24.0 271.0 L 24.0 279.0 L 25.0 280.0 L 25.0 281.0 L 27.0 283.0 L 28.0 283.0 L 29.0 284.0 L 37.0 284.0 L 38.0 283.0 L 42.0 283.0 L 43.0 282.0 L 65.0 282.0 L 66.0 281.0 L 82.0 281.0 L 83.0 282.0 L 97.0 282.0 L 98.0 281.0 L 106.0 281.0 L 107.0 280.0 L 111.0 280.0 L 112.0 279.0 L 115.0 279.0 L 116.0 278.0 L 119.0 278.0 L 120.0 277.0 L 122.0 277.0 L 123.0 276.0 L 158.0 276.0 L 159.0 277.0 L 161.0 277.0 L 162.0 278.0 L 172.0 278.0 L 173.0 277.0 L 176.0 277.0 L 177.0 278.0 L 181.0 278.0 L 182.0 279.0 L 185.0 279.0 L 186.0 280.0 L 196.0 280.0 L 197.0 281.0 L 210.0 281.0 L 211.0 282.0 L 218.0 282.0 L 219.0 283.0 L 225.0 283.0 L 226.0 284.0 L 234.0 284.0 L 235.0 285.0 L 253.0 285.0 L 254.0 284.0 L 263.0 284.0 L 264.0 283.0 L 266.0 283.0 L 267.0 282.0 L 268.0 282.0 L 270.0 280.0 L 271.0 280.0 L 272.0 279.0 L 272.0 278.0 L 274.0 276.0 L 274.0 275.0 L 277.0 270.0 L 277.0 268.0 L 278.0 267.0 L 278.0 258.0 L 277.0 257.0 L 277.0 255.0 L 276.0 254.0 L 276.0 253.0 L 274.0 251.0 L 274.0 250.0 L 271.0 247.0 L 270.0 247.0 L 268.0 245.0 L 267.0 245.0 L 266.0 244.0 L 264.0 244.0 L 263.0 243.0 L 261.0 243.0 L 260.0 242.0 L 256.0 242.0 L 255.0 241.0 L 250.0 241.0 L 249.0 242.0 L 247.0 242.0 L 251.0 242.0 L 252.0 241.0 L 253.0 241.0 L 254.0 242.0 L 259.0 242.0 L 260.0 243.0 L 262.0 243.0 L 263.0 244.0 L 265.0 244.0 L 266.0 245.0 L 267.0 245.0 L 274.0 251.0 L 274.0 252.0 L 276.0 254.0 L 276.0 255.0 L 278.0 258.0 L 278.0 266.0 L 277.0 267.0 L 277.0 269.0 L 276.0 270.0 L 276.0 271.0 L 275.0 272.0 L 274.0 275.0 L 268.0 281.0 L 267.0 281.0 L 264.0 283.0 L 257.0 283.0 L 256.0 284.0 L 231.0 284.0 L 230.0 283.0 L 223.0 283.0 L 222.0 282.0 L 215.0 282.0 L 214.0 281.0 L 209.0 281.0 L 207.0 279.0 L 207.0 278.0 L 206.0 277.0 L 206.0 269.0 L 207.0 268.0 L 207.0 267.0 L 210.0 264.0 L 212.0 264.0 L 213.0 263.0 L 216.0 263.0 L 217.0 262.0 L 218.0 262.0 L 219.0 261.0 L 222.0 260.0 L 224.0 258.0 L 225.0 258.0 L 227.0 256.0 L 228.0 256.0 L 229.0 255.0 L 231.0 255.0 L 232.0 254.0 L 240.0 254.0 L 239.0 254.0 L 238.0 253.0 L 234.0 253.0 L 233.0 254.0 L 230.0 254.0 L 229.0 255.0 L 226.0 256.0 L 224.0 258.0 L 221.0 259.0 L 219.0 261.0 L 218.0 261.0 L 217.0 262.0 L 215.0 262.0 L 214.0 263.0 L 210.0 263.0 L 209.0 264.0 L 206.0 261.0 L 206.0 260.0 L 201.0 255.0 L 201.0 254.0 L 196.0 249.0 L 196.0 247.0 L 194.0 245.0 L 193.0 245.0 L 189.0 241.0 L 187.0 241.0 L 186.0 240.0 L 186.0 239.0 L 185.0 238.0 L 186.0 237.0 L 188.0 237.0 L 189.0 238.0 L 190.0 238.0 L 189.0 237.0 L 187.0 237.0 L 186.0 236.0 L 183.0 235.0 L 182.0 234.0 L 182.0 233.0 L 183.0 232.0 L 178.0 235.0 L 174.0 235.0 L 173.0 236.0 L 172.0 235.0 L 168.0 235.0 L 167.0 234.0 L 164.0 233.0 L 153.0 222.0 L 153.0 221.0 L 148.0 217.0 L 148.0 216.0 L 142.0 210.0 L 142.0 209.0 L 141.0 208.0 L 141.0 202.0 L 137.0 202.0 L 136.0 201.0 L 142.0 195.0 L 142.0 194.0 L 144.0 192.0 L 144.0 191.0 L 146.0 188.0 L 146.0 180.0 L 147.0 179.0 L 148.0 179.0 L 150.0 177.0 L 155.0 181.0 L 158.0 182.0 L 160.0 184.0 L 161.0 184.0 L 163.0 186.0 L 164.0 186.0 L 169.0 191.0 L 169.0 190.0 L 164.0 185.0 L 163.0 185.0 L 161.0 183.0 L 158.0 182.0 L 153.0 178.0 L 154.0 177.0 L 156.0 177.0 L 157.0 178.0 L 161.0 178.0 L 162.0 179.0 L 166.0 179.0 L 167.0 180.0 L 177.0 180.0 L 178.0 179.0 L 181.0 179.0 L 182.0 178.0 L 184.0 178.0 L 185.0 177.0 L 186.0 177.0 L 191.0 172.0 L 192.0 172.0 L 193.0 173.0 L 194.0 173.0 L 197.0 176.0 L 198.0 176.0 L 207.0 185.0 L 208.0 185.0 L 211.0 188.0 L 211.0 189.0 L 220.0 198.0 L 220.0 199.0 L 226.0 206.0 L 226.0 207.0 L 228.0 209.0 L 228.0 210.0 L 230.0 212.0 L 230.0 213.0 L 241.0 224.0 L 239.0 222.0 L 239.0 221.0 L 230.0 212.0 L 230.0 211.0 L 228.0 209.0 L 228.0 208.0 L 226.0 206.0 L 226.0 205.0 L 224.0 203.0 L 224.0 202.0 L 221.0 199.0 L 221.0 198.0 L 211.0 188.0 L 211.0 187.0 L 206.0 182.0 L 205.0 182.0 L 199.0 176.0 L 198.0 176.0 L 194.0 172.0 L 193.0 172.0 L 190.0 169.0 L 189.0 169.0 L 188.0 168.0 L 187.0 168.0 L 185.0 166.0 L 184.0 166.0 L 183.0 165.0 L 180.0 164.0 L 178.0 162.0 L 177.0 162.0 L 176.0 161.0 L 173.0 160.0 L 165.0 152.0 L 164.0 152.0 L 155.0 143.0 L 154.0 143.0 L 150.0 139.0 L 149.0 139.0 L 147.0 137.0 L 146.0 137.0 L 143.0 134.0 L 142.0 134.0 L 140.0 132.0 L 139.0 132.0 L 134.0 128.0 L 131.0 127.0 L 129.0 125.0 L 128.0 125.0 L 125.0 122.0 L 124.0 122.0 L 123.0 121.0 L 121.0 121.0 L 118.0 119.0 L 116.0 119.0 L 115.0 118.0 L 113.0 118.0 L 110.0 116.0 L 108.0 116.0 L 107.0 115.0 L 105.0 115.0 L 104.0 114.0 L 102.0 114.0 L 101.0 113.0 L 98.0 113.0 L 97.0 112.0 L 92.0 112.0 L 91.0 111.0 L 86.0 111.0 L 85.0 110.0 L 80.0 110.0 L 79.0 109.0 L 75.0 109.0 L 74.0 108.0 L 71.0 108.0 L 70.0 107.0 L 61.0 107.0 L 60.0 108.0 L 52.0 108.0 L 51.0 109.0 L 46.0 109.0 L 45.0 110.0 L 41.0 110.0 L 40.0 111.0 L 37.0 111.0 L 36.0 112.0 Z M 208.0 265.0 L 207.0 266.0 L 207.0 267.0 L 206.0 268.0 L 206.0 270.0 L 205.0 271.0 L 205.0 277.0 L 206.0 278.0 L 206.0 279.0 L 205.0 280.0 L 189.0 280.0 L 188.0 279.0 L 184.0 279.0 L 183.0 278.0 L 180.0 278.0 L 179.0 277.0 L 169.0 277.0 L 168.0 278.0 L 165.0 278.0 L 164.0 277.0 L 162.0 277.0 L 161.0 276.0 L 160.0 276.0 L 158.0 274.0 L 158.0 272.0 L 161.0 269.0 L 162.0 269.0 L 163.0 268.0 L 166.0 267.0 L 170.0 263.0 L 176.0 263.0 L 177.0 264.0 L 180.0 264.0 L 181.0 265.0 L 186.0 265.0 L 187.0 264.0 L 189.0 264.0 L 191.0 262.0 L 192.0 262.0 L 194.0 260.0 L 195.0 260.0 L 198.0 258.0 L 202.0 258.0 L 203.0 259.0 L 204.0 259.0 L 206.0 261.0 L 206.0 262.0 Z M 152.0 177.0 L 153.0 176.0 L 154.0 177.0 L 153.0 178.0 Z"/>
  </g>
</svg>
