<svg xmlns="http://www.w3.org/2000/svg" width="320" height="320" viewBox="0 0 320 320">
  <g fill="#000" fill-rule="evenodd" stroke="none">
    <path d="M 205.0 270.0 L 206.0 270.0 L 208.0 272.0 L 214.0 272.0 L 215.0 273.0 L 216.0 273.0 L 221.0 276.0 L 223.0 276.0 L 224.0 277.0 L 228.0 277.0 L 229.0 278.0 L 232.0 278.0 L 233.0 279.0 L 236.0 279.0 L 239.0 281.0 L 244.0 281.0 L 245.0 282.0 L 244.0 281.0 L 241.0 281.0 L 240.0 280.0 L 238.0 280.0 L 237.0 279.0 L 234.0 279.0 L 231.0 277.0 L 226.0 277.0 L 225.0 276.0 L 222.0 276.0 L 221.0 275.0 L 220.0 275.0 L 215.0 272.0 L 209.0 272.0 L 208.0 271.0 Z M 179.0 235.0 L 176.0 235.0 L 175.0 236.0 L 174.0 236.0 L 173.0 237.0 L 170.0 238.0 L 169.0 239.0 L 169.0 240.0 L 171.0 240.0 L 171.0 239.0 L 173.0 237.0 L 174.0 237.0 L 177.0 235.0 Z M 67.0 235.0 L 67.0 240.0 L 66.0 241.0 L 66.0 248.0 L 67.0 249.0 L 67.0 252.0 L 68.0 253.0 L 68.0 255.0 L 69.0 256.0 L 69.0 258.0 L 70.0 259.0 L 70.0 260.0 L 72.0 262.0 L 72.0 263.0 L 76.0 267.0 L 77.0 267.0 L 79.0 269.0 L 80.0 269.0 L 85.0 272.0 L 85.0 274.0 L 83.0 276.0 L 83.0 277.0 L 82.0 278.0 L 81.0 278.0 L 80.0 279.0 L 77.0 279.0 L 70.0 284.0 L 70.0 287.0 L 71.0 288.0 L 75.0 288.0 L 76.0 287.0 L 82.0 287.0 L 83.0 288.0 L 95.0 288.0 L 96.0 289.0 L 106.0 289.0 L 107.0 290.0 L 114.0 290.0 L 115.0 291.0 L 121.0 291.0 L 122.0 292.0 L 128.0 292.0 L 129.0 293.0 L 155.0 293.0 L 156.0 292.0 L 161.0 292.0 L 162.0 291.0 L 164.0 291.0 L 166.0 289.0 L 167.0 289.0 L 171.0 285.0 L 171.0 284.0 L 174.0 279.0 L 174.0 277.0 L 175.0 276.0 L 180.0 276.0 L 181.0 277.0 L 188.0 277.0 L 189.0 278.0 L 194.0 278.0 L 195.0 279.0 L 196.0 279.0 L 201.0 282.0 L 203.0 282.0 L 204.0 283.0 L 206.0 283.0 L 207.0 284.0 L 209.0 284.0 L 210.0 285.0 L 215.0 285.0 L 216.0 286.0 L 222.0 286.0 L 223.0 287.0 L 238.0 287.0 L 239.0 288.0 L 247.0 288.0 L 248.0 289.0 L 263.0 289.0 L 264.0 290.0 L 266.0 290.0 L 267.0 291.0 L 269.0 291.0 L 270.0 292.0 L 278.0 292.0 L 279.0 291.0 L 283.0 291.0 L 284.0 292.0 L 300.0 292.0 L 301.0 291.0 L 301.0 290.0 L 300.0 289.0 L 299.0 289.0 L 298.0 288.0 L 295.0 287.0 L 293.0 285.0 L 292.0 285.0 L 289.0 282.0 L 289.0 280.0 L 285.0 276.0 L 285.0 273.0 L 286.0 272.0 L 286.0 271.0 L 285.0 270.0 L 285.0 268.0 L 286.0 267.0 L 286.0 263.0 L 285.0 262.0 L 285.0 254.0 L 284.0 253.0 L 283.0 250.0 L 280.0 247.0 L 280.0 245.0 L 279.0 244.0 L 279.0 242.0 L 278.0 241.0 L 274.0 241.0 L 274.0 242.0 L 273.0 243.0 L 273.0 245.0 L 274.0 246.0 L 274.0 249.0 L 275.0 250.0 L 275.0 252.0 L 274.0 253.0 L 274.0 256.0 L 273.0 257.0 L 273.0 258.0 L 270.0 261.0 L 270.0 262.0 L 267.0 265.0 L 266.0 265.0 L 265.0 264.0 L 264.0 264.0 L 263.0 263.0 L 262.0 263.0 L 261.0 262.0 L 260.0 262.0 L 259.0 261.0 L 256.0 260.0 L 254.0 258.0 L 251.0 257.0 L 249.0 254.0 L 249.0 251.0 L 248.0 250.0 L 248.0 247.0 L 247.0 246.0 L 246.0 243.0 L 244.0 241.0 L 244.0 239.0 L 243.0 238.0 L 243.0 236.0 L 242.0 235.0 L 242.0 232.0 L 241.0 231.0 L 241.0 229.0 L 240.0 228.0 L 240.0 226.0 L 239.0 225.0 L 239.0 223.0 L 238.0 222.0 L 238.0 220.0 L 236.0 218.0 L 236.0 217.0 L 234.0 215.0 L 234.0 214.0 L 233.0 213.0 L 232.0 213.0 L 229.0 210.0 L 228.0 210.0 L 226.0 208.0 L 225.0 208.0 L 224.0 207.0 L 221.0 207.0 L 220.0 206.0 L 214.0 206.0 L 213.0 207.0 L 211.0 207.0 L 210.0 208.0 L 208.0 208.0 L 207.0 209.0 L 204.0 209.0 L 203.0 210.0 L 200.0 210.0 L 199.0 209.0 L 197.0 209.0 L 196.0 208.0 L 195.0 209.0 L 193.0 209.0 L 188.0 204.0 L 188.0 203.0 L 187.0 202.0 L 186.0 202.0 L 184.0 200.0 L 183.0 200.0 L 178.0 197.0 L 176.0 197.0 L 175.0 196.0 L 172.0 196.0 L 171.0 195.0 L 169.0 195.0 L 168.0 194.0 L 164.0 194.0 L 163.0 193.0 L 159.0 193.0 L 158.0 192.0 L 150.0 192.0 L 150.0 197.0 L 151.0 198.0 L 151.0 206.0 L 152.0 207.0 L 152.0 209.0 L 153.0 210.0 L 153.0 212.0 L 152.0 213.0 L 152.0 216.0 L 153.0 217.0 L 153.0 220.0 L 154.0 221.0 L 155.0 224.0 L 157.0 226.0 L 157.0 227.0 L 160.0 230.0 L 161.0 230.0 L 163.0 232.0 L 164.0 232.0 L 165.0 233.0 L 167.0 233.0 L 168.0 234.0 L 172.0 234.0 L 168.0 234.0 L 167.0 233.0 L 165.0 233.0 L 164.0 232.0 L 163.0 232.0 L 156.0 225.0 L 156.0 224.0 L 154.0 221.0 L 154.0 219.0 L 153.0 218.0 L 153.0 212.0 L 154.0 211.0 L 154.0 209.0 L 159.0 204.0 L 160.0 204.0 L 163.0 202.0 L 179.0 202.0 L 180.0 203.0 L 181.0 203.0 L 180.0 203.0 L 179.0 202.0 L 176.0 202.0 L 175.0 201.0 L 165.0 201.0 L 164.0 202.0 L 162.0 202.0 L 161.0 203.0 L 158.0 204.0 L 154.0 208.0 L 154.0 209.0 L 153.0 210.0 L 152.0 209.0 L 152.0 205.0 L 151.0 204.0 L 151.0 193.0 L 152.0 192.0 L 155.0 192.0 L 156.0 193.0 L 162.0 193.0 L 163.0 194.0 L 166.0 194.0 L 167.0 195.0 L 170.0 195.0 L 173.0 197.0 L 176.0 197.0 L 179.0 199.0 L 181.0 199.0 L 182.0 200.0 L 183.0 200.0 L 185.0 202.0 L 186.0 202.0 L 187.0 203.0 L 187.0 204.0 L 190.0 207.0 L 190.0 208.0 L 189.0 209.0 L 184.0 204.0 L 183.0 204.0 L 184.0 205.0 L 185.0 205.0 L 188.0 208.0 L 188.0 209.0 L 190.0 212.0 L 191.0 212.0 L 194.0 215.0 L 195.0 215.0 L 197.0 217.0 L 198.0 217.0 L 204.0 223.0 L 204.0 224.0 L 206.0 226.0 L 206.0 227.0 L 207.0 228.0 L 207.0 229.0 L 208.0 230.0 L 209.0 233.0 L 213.0 237.0 L 214.0 237.0 L 216.0 239.0 L 216.0 240.0 L 217.0 240.0 L 217.0 239.0 L 216.0 238.0 L 215.0 238.0 L 209.0 232.0 L 209.0 231.0 L 208.0 230.0 L 208.0 229.0 L 207.0 228.0 L 206.0 225.0 L 204.0 223.0 L 204.0 222.0 L 199.0 217.0 L 198.0 217.0 L 195.0 214.0 L 194.0 214.0 L 193.0 213.0 L 193.0 211.0 L 195.0 209.0 L 198.0 209.0 L 199.0 210.0 L 205.0 210.0 L 206.0 209.0 L 208.0 209.0 L 209.0 208.0 L 211.0 208.0 L 212.0 207.0 L 222.0 207.0 L 223.0 208.0 L 225.0 208.0 L 227.0 210.0 L 228.0 210.0 L 232.0 214.0 L 233.0 214.0 L 234.0 215.0 L 234.0 216.0 L 236.0 218.0 L 236.0 219.0 L 239.0 224.0 L 239.0 227.0 L 240.0 228.0 L 240.0 230.0 L 241.0 231.0 L 241.0 233.0 L 242.0 234.0 L 242.0 237.0 L 243.0 238.0 L 243.0 240.0 L 244.0 241.0 L 244.0 242.0 L 245.0 243.0 L 245.0 244.0 L 248.0 249.0 L 248.0 252.0 L 249.0 253.0 L 249.0 255.0 L 250.0 256.0 L 250.0 257.0 L 249.0 258.0 L 248.0 258.0 L 246.0 256.0 L 245.0 256.0 L 240.0 253.0 L 238.0 253.0 L 237.0 252.0 L 234.0 252.0 L 233.0 251.0 L 231.0 251.0 L 230.0 250.0 L 229.0 250.0 L 223.0 244.0 L 223.0 243.0 L 222.0 242.0 L 219.0 241.0 L 228.0 250.0 L 229.0 250.0 L 232.0 252.0 L 234.0 252.0 L 235.0 253.0 L 238.0 253.0 L 239.0 254.0 L 241.0 254.0 L 242.0 255.0 L 245.0 256.0 L 247.0 258.0 L 248.0 258.0 L 250.0 260.0 L 251.0 260.0 L 256.0 264.0 L 259.0 265.0 L 261.0 267.0 L 262.0 267.0 L 267.0 270.0 L 269.0 270.0 L 270.0 271.0 L 271.0 271.0 L 270.0 271.0 L 267.0 269.0 L 267.0 267.0 L 268.0 266.0 L 268.0 265.0 L 271.0 262.0 L 271.0 261.0 L 273.0 259.0 L 273.0 258.0 L 275.0 255.0 L 275.0 248.0 L 274.0 247.0 L 274.0 242.0 L 275.0 241.0 L 277.0 241.0 L 279.0 244.0 L 279.0 247.0 L 283.0 251.0 L 283.0 252.0 L 284.0 253.0 L 284.0 255.0 L 285.0 256.0 L 285.0 267.0 L 284.0 268.0 L 284.0 270.0 L 283.0 271.0 L 282.0 271.0 L 284.0 273.0 L 284.0 275.0 L 285.0 276.0 L 285.0 277.0 L 289.0 281.0 L 289.0 283.0 L 292.0 286.0 L 293.0 286.0 L 295.0 288.0 L 296.0 288.0 L 297.0 289.0 L 295.0 291.0 L 283.0 291.0 L 282.0 290.0 L 280.0 290.0 L 278.0 288.0 L 277.0 288.0 L 272.0 283.0 L 271.0 283.0 L 270.0 282.0 L 268.0 282.0 L 267.0 281.0 L 265.0 281.0 L 264.0 280.0 L 261.0 280.0 L 260.0 279.0 L 256.0 279.0 L 255.0 278.0 L 252.0 278.0 L 251.0 277.0 L 248.0 277.0 L 247.0 276.0 L 245.0 276.0 L 244.0 275.0 L 242.0 275.0 L 241.0 274.0 L 239.0 274.0 L 238.0 273.0 L 236.0 273.0 L 235.0 272.0 L 233.0 272.0 L 232.0 271.0 L 231.0 271.0 L 230.0 270.0 L 227.0 269.0 L 222.0 264.0 L 221.0 264.0 L 216.0 260.0 L 215.0 260.0 L 214.0 259.0 L 213.0 259.0 L 211.0 257.0 L 208.0 256.0 L 205.0 253.0 L 204.0 253.0 L 201.0 250.0 L 200.0 250.0 L 197.0 247.0 L 196.0 247.0 L 190.0 241.0 L 193.0 244.0 L 193.0 245.0 L 194.0 245.0 L 200.0 251.0 L 201.0 251.0 L 204.0 254.0 L 205.0 254.0 L 207.0 256.0 L 208.0 256.0 L 209.0 257.0 L 212.0 258.0 L 214.0 260.0 L 215.0 260.0 L 217.0 262.0 L 218.0 262.0 L 220.0 264.0 L 221.0 264.0 L 225.0 268.0 L 226.0 268.0 L 228.0 270.0 L 229.0 270.0 L 234.0 273.0 L 236.0 273.0 L 237.0 274.0 L 239.0 274.0 L 240.0 275.0 L 242.0 275.0 L 243.0 276.0 L 246.0 276.0 L 247.0 277.0 L 249.0 277.0 L 250.0 278.0 L 252.0 278.0 L 253.0 279.0 L 253.0 285.0 L 252.0 286.0 L 251.0 285.0 L 250.0 285.0 L 252.0 287.0 L 251.0 288.0 L 246.0 288.0 L 245.0 287.0 L 237.0 287.0 L 236.0 286.0 L 220.0 286.0 L 219.0 285.0 L 213.0 285.0 L 212.0 284.0 L 209.0 284.0 L 208.0 283.0 L 205.0 283.0 L 204.0 282.0 L 203.0 282.0 L 198.0 279.0 L 196.0 279.0 L 195.0 278.0 L 193.0 278.0 L 192.0 277.0 L 186.0 277.0 L 185.0 276.0 L 178.0 276.0 L 177.0 275.0 L 176.0 275.0 L 175.0 274.0 L 175.0 270.0 L 174.0 269.0 L 174.0 267.0 L 173.0 266.0 L 172.0 263.0 L 168.0 259.0 L 167.0 259.0 L 164.0 256.0 L 163.0 256.0 L 158.0 252.0 L 155.0 251.0 L 153.0 249.0 L 152.0 249.0 L 151.0 248.0 L 150.0 248.0 L 149.0 247.0 L 148.0 247.0 L 147.0 246.0 L 146.0 246.0 L 145.0 245.0 L 144.0 245.0 L 139.0 242.0 L 137.0 242.0 L 136.0 241.0 L 137.0 240.0 L 142.0 240.0 L 147.0 244.0 L 148.0 244.0 L 149.0 245.0 L 152.0 245.0 L 153.0 246.0 L 157.0 246.0 L 158.0 245.0 L 160.0 245.0 L 165.0 242.0 L 168.0 244.0 L 170.0 244.0 L 171.0 245.0 L 172.0 245.0 L 173.0 246.0 L 175.0 246.0 L 178.0 248.0 L 181.0 248.0 L 182.0 249.0 L 183.0 249.0 L 184.0 250.0 L 184.0 251.0 L 186.0 253.0 L 192.0 253.0 L 193.0 254.0 L 196.0 254.0 L 195.0 253.0 L 192.0 253.0 L 191.0 252.0 L 186.0 252.0 L 184.0 250.0 L 184.0 246.0 L 185.0 245.0 L 185.0 243.0 L 186.0 242.0 L 186.0 241.0 L 187.0 240.0 L 188.0 240.0 L 188.0 239.0 L 187.0 239.0 L 187.0 240.0 L 185.0 243.0 L 185.0 245.0 L 184.0 246.0 L 184.0 247.0 L 183.0 248.0 L 180.0 248.0 L 179.0 247.0 L 177.0 247.0 L 174.0 245.0 L 172.0 245.0 L 171.0 244.0 L 168.0 243.0 L 167.0 242.0 L 167.0 241.0 L 165.0 241.0 L 163.0 243.0 L 162.0 243.0 L 161.0 244.0 L 159.0 244.0 L 158.0 245.0 L 151.0 245.0 L 150.0 244.0 L 149.0 244.0 L 148.0 243.0 L 147.0 243.0 L 146.0 242.0 L 143.0 241.0 L 142.0 240.0 L 142.0 238.0 L 135.0 238.0 L 134.0 239.0 L 130.0 239.0 L 129.0 238.0 L 127.0 238.0 L 126.0 237.0 L 124.0 237.0 L 122.0 235.0 L 122.0 234.0 L 121.0 233.0 L 121.0 232.0 L 120.0 231.0 L 120.0 230.0 L 117.0 225.0 L 117.0 223.0 L 115.0 220.0 L 115.0 218.0 L 114.0 217.0 L 114.0 215.0 L 113.0 214.0 L 113.0 212.0 L 112.0 211.0 L 112.0 209.0 L 111.0 208.0 L 111.0 206.0 L 110.0 205.0 L 110.0 203.0 L 109.0 202.0 L 109.0 200.0 L 108.0 199.0 L 108.0 197.0 L 109.0 196.0 L 111.0 196.0 L 112.0 195.0 L 114.0 195.0 L 115.0 194.0 L 118.0 194.0 L 119.0 193.0 L 122.0 193.0 L 117.0 193.0 L 116.0 194.0 L 113.0 194.0 L 112.0 195.0 L 110.0 195.0 L 109.0 196.0 L 107.0 196.0 L 106.0 197.0 L 104.0 197.0 L 101.0 199.0 L 99.0 199.0 L 98.0 200.0 L 95.0 201.0 L 90.0 205.0 L 89.0 205.0 L 84.0 210.0 L 87.0 207.0 L 88.0 207.0 L 93.0 203.0 L 94.0 203.0 L 95.0 202.0 L 96.0 202.0 L 97.0 201.0 L 98.0 201.0 L 103.0 198.0 L 105.0 198.0 L 106.0 197.0 L 108.0 199.0 L 108.0 201.0 L 109.0 202.0 L 109.0 204.0 L 110.0 205.0 L 110.0 207.0 L 111.0 208.0 L 111.0 210.0 L 112.0 211.0 L 112.0 213.0 L 113.0 214.0 L 113.0 216.0 L 114.0 217.0 L 114.0 219.0 L 116.0 222.0 L 116.0 224.0 L 117.0 225.0 L 117.0 226.0 L 119.0 229.0 L 119.0 231.0 L 121.0 234.0 L 120.0 235.0 L 119.0 235.0 L 118.0 234.0 L 115.0 234.0 L 114.0 233.0 L 112.0 233.0 L 111.0 232.0 L 107.0 232.0 L 106.0 231.0 L 105.0 231.0 L 101.0 227.0 L 100.0 227.0 L 98.0 225.0 L 97.0 225.0 L 92.0 222.0 L 90.0 222.0 L 89.0 221.0 L 78.0 221.0 L 77.0 222.0 L 76.0 222.0 L 75.0 221.0 L 75.0 220.0 L 76.0 219.0 L 76.0 218.0 L 78.0 216.0 L 74.0 220.0 L 74.0 221.0 L 72.0 223.0 L 72.0 224.0 L 71.0 225.0 L 71.0 226.0 L 68.0 231.0 L 68.0 234.0 Z M 297.0 290.0 L 298.0 289.0 L 299.0 290.0 L 298.0 291.0 Z M 254.0 280.0 L 255.0 279.0 L 257.0 279.0 L 258.0 280.0 L 262.0 280.0 L 263.0 281.0 L 266.0 281.0 L 267.0 282.0 L 269.0 282.0 L 270.0 283.0 L 271.0 283.0 L 276.0 288.0 L 277.0 288.0 L 278.0 289.0 L 278.0 290.0 L 276.0 292.0 L 271.0 292.0 L 270.0 291.0 L 268.0 291.0 L 267.0 290.0 L 265.0 290.0 L 264.0 289.0 L 262.0 289.0 L 261.0 288.0 L 255.0 288.0 L 254.0 287.0 Z M 104.0 277.0 L 103.0 278.0 L 103.0 280.0 L 102.0 281.0 L 102.0 284.0 L 103.0 285.0 L 103.0 287.0 L 102.0 288.0 L 87.0 288.0 L 86.0 287.0 L 71.0 287.0 L 70.0 286.0 L 70.0 285.0 L 71.0 284.0 L 72.0 284.0 L 76.0 280.0 L 78.0 280.0 L 79.0 279.0 L 82.0 279.0 L 84.0 277.0 L 85.0 274.0 L 87.0 272.0 L 88.0 272.0 L 89.0 273.0 L 92.0 273.0 L 93.0 274.0 L 96.0 274.0 L 97.0 275.0 L 102.0 275.0 Z M 283.0 272.0 L 284.0 271.0 L 285.0 272.0 L 284.0 273.0 Z M 250.0 259.0 L 251.0 258.0 L 253.0 258.0 L 255.0 260.0 L 256.0 260.0 L 257.0 261.0 L 258.0 261.0 L 259.0 262.0 L 260.0 262.0 L 261.0 263.0 L 264.0 264.0 L 266.0 266.0 L 266.0 267.0 L 265.0 268.0 L 264.0 268.0 L 263.0 267.0 L 262.0 267.0 L 260.0 265.0 L 257.0 264.0 L 255.0 262.0 L 252.0 261.0 Z M 71.0 226.0 L 75.0 222.0 L 90.0 222.0 L 91.0 223.0 L 93.0 223.0 L 94.0 224.0 L 95.0 224.0 L 97.0 226.0 L 98.0 226.0 L 100.0 228.0 L 101.0 228.0 L 103.0 230.0 L 103.0 231.0 L 104.0 231.0 L 105.0 232.0 L 109.0 232.0 L 110.0 233.0 L 113.0 233.0 L 114.0 234.0 L 116.0 234.0 L 117.0 235.0 L 119.0 235.0 L 120.0 236.0 L 122.0 236.0 L 123.0 237.0 L 125.0 237.0 L 126.0 238.0 L 128.0 238.0 L 129.0 239.0 L 129.0 240.0 L 133.0 240.0 L 136.0 242.0 L 138.0 242.0 L 139.0 243.0 L 140.0 243.0 L 141.0 244.0 L 142.0 244.0 L 143.0 245.0 L 144.0 245.0 L 145.0 246.0 L 148.0 247.0 L 150.0 249.0 L 151.0 249.0 L 152.0 250.0 L 155.0 251.0 L 157.0 253.0 L 158.0 253.0 L 159.0 254.0 L 160.0 254.0 L 162.0 256.0 L 163.0 256.0 L 166.0 259.0 L 167.0 259.0 L 171.0 263.0 L 171.0 264.0 L 173.0 266.0 L 173.0 267.0 L 174.0 268.0 L 174.0 277.0 L 173.0 278.0 L 173.0 280.0 L 172.0 281.0 L 172.0 282.0 L 170.0 284.0 L 170.0 285.0 L 166.0 289.0 L 165.0 289.0 L 162.0 291.0 L 158.0 291.0 L 157.0 292.0 L 151.0 292.0 L 150.0 293.0 L 134.0 293.0 L 133.0 292.0 L 125.0 292.0 L 124.0 291.0 L 119.0 291.0 L 118.0 290.0 L 112.0 290.0 L 111.0 289.0 L 106.0 289.0 L 104.0 287.0 L 104.0 286.0 L 103.0 285.0 L 103.0 279.0 L 105.0 276.0 L 117.0 276.0 L 118.0 275.0 L 121.0 275.0 L 114.0 275.0 L 113.0 276.0 L 106.0 276.0 L 105.0 275.0 L 99.0 275.0 L 98.0 274.0 L 95.0 274.0 L 94.0 273.0 L 91.0 273.0 L 90.0 272.0 L 87.0 272.0 L 86.0 271.0 L 85.0 271.0 L 84.0 270.0 L 82.0 270.0 L 81.0 269.0 L 80.0 269.0 L 78.0 267.0 L 77.0 267.0 L 72.0 262.0 L 72.0 261.0 L 71.0 260.0 L 71.0 259.0 L 68.0 254.0 L 68.0 251.0 L 67.0 250.0 L 67.0 237.0 L 68.0 236.0 L 68.0 233.0 L 70.0 230.0 L 70.0 228.0 L 71.0 227.0 Z"/>
  </g>
</svg>
