<svg xmlns="http://www.w3.org/2000/svg" width="315" height="325" viewBox="0 0 315 325">
  <rect width="100%" height="100%" fill="white"/>
  <path d="M 265 16 L 259 16 L 255 19 L 254 21 L 254 23 L 252 27 L 247 33 L 244 40 L 238 47 L 237 50 L 235 52 L 234 55 L 232 57 L 230 61 L 224 67 L 224 68 L 218 75 L 215 81 L 214 86 L 212 89 L 212 91 L 211 92 L 211 94 L 209 98 L 209 101 L 194 117 L 194 118 L 192 120 L 192 121 L 190 123 L 190 124 L 187 128 L 185 128 L 184 129 L 182 129 L 180 130 L 174 135 L 173 135 L 170 138 L 170 139 L 168 141 L 166 145 L 166 147 L 165 148 L 165 151 L 162 154 L 161 154 L 160 156 L 156 160 L 155 160 L 151 164 L 149 165 L 147 165 L 144 167 L 139 168 L 133 171 L 123 180 L 123 181 L 120 184 L 117 191 L 112 197 L 110 201 L 109 206 L 103 212 L 103 213 L 101 215 L 100 217 L 100 219 L 99 220 L 99 223 L 98 224 L 97 231 L 95 235 L 93 237 L 91 241 L 91 243 L 84 250 L 84 251 L 80 256 L 78 261 L 76 263 L 74 268 L 65 279 L 61 281 L 59 281 L 56 283 L 54 283 L 53 284 L 51 284 L 50 285 L 47 285 L 46 286 L 44 286 L 42 287 L 42 292 L 43 293 L 48 293 L 49 294 L 68 294 L 69 293 L 72 293 L 74 292 L 78 286 L 103 286 L 104 285 L 106 286 L 110 286 L 113 284 L 116 284 L 117 283 L 121 283 L 124 281 L 125 282 L 128 281 L 130 277 L 130 272 L 133 268 L 133 266 L 134 265 L 134 258 L 136 256 L 137 256 L 137 255 L 140 251 L 140 249 L 141 247 L 145 243 L 145 238 L 144 237 L 145 235 L 145 227 L 144 225 L 140 222 L 141 221 L 148 220 L 149 219 L 151 219 L 155 217 L 160 212 L 163 205 L 166 202 L 167 202 L 177 192 L 181 190 L 189 199 L 189 200 L 196 207 L 196 208 L 213 224 L 214 227 L 224 237 L 224 239 L 226 243 L 228 245 L 229 248 L 231 250 L 233 254 L 238 260 L 242 268 L 242 270 L 244 274 L 244 276 L 243 278 L 240 281 L 236 283 L 233 283 L 231 284 L 229 286 L 229 290 L 231 292 L 233 292 L 234 293 L 248 293 L 249 292 L 251 292 L 252 293 L 262 293 L 264 292 L 264 291 L 266 289 L 266 282 L 262 275 L 262 273 L 261 272 L 260 267 L 256 260 L 256 258 L 254 254 L 254 251 L 253 250 L 253 247 L 252 246 L 252 243 L 251 242 L 250 237 L 246 229 L 244 227 L 244 226 L 237 219 L 237 217 L 234 211 L 231 208 L 230 206 L 229 201 L 226 196 L 226 194 L 223 188 L 223 186 L 221 183 L 221 181 L 218 177 L 217 174 L 214 171 L 213 169 L 213 165 L 210 159 L 210 156 L 213 150 L 215 148 L 216 145 L 218 143 L 224 131 L 224 129 L 228 121 L 228 119 L 229 118 L 229 116 L 230 115 L 230 113 L 231 112 L 231 110 L 233 106 L 233 103 L 234 102 L 234 99 L 235 98 L 235 96 L 240 90 L 245 80 L 245 78 L 246 77 L 246 75 L 247 74 L 247 72 L 248 71 L 249 66 L 251 63 L 252 58 L 255 53 L 261 51 L 264 48 L 264 41 L 263 40 L 263 35 L 266 30 L 266 28 L 267 27 L 267 24 L 268 23 L 267 18 Z M 142 228 L 141 230 L 141 232 L 142 233 L 141 235 L 141 239 L 142 241 L 140 243 L 139 243 L 138 245 L 138 247 L 137 248 L 137 250 L 135 252 L 135 253 L 131 255 L 131 264 L 128 268 L 127 275 L 125 278 L 118 279 L 115 281 L 112 281 L 109 283 L 107 282 L 104 282 L 103 283 L 97 283 L 96 284 L 95 283 L 83 283 L 82 282 L 86 280 L 89 280 L 90 279 L 92 279 L 96 276 L 96 274 L 97 273 L 97 270 L 98 269 L 98 265 L 102 260 L 104 255 L 112 247 L 117 237 L 123 231 L 124 229 L 124 227 L 126 224 L 128 223 L 130 223 L 131 222 L 133 222 L 135 224 L 137 224 Z M 137 209 L 138 211 L 138 213 L 137 215 L 133 219 L 126 222 L 123 225 L 121 230 L 115 236 L 113 240 L 113 242 L 111 244 L 111 245 L 102 254 L 102 256 L 99 260 L 99 261 L 77 283 L 75 284 L 75 285 L 71 290 L 69 291 L 55 291 L 54 292 L 52 292 L 51 291 L 48 291 L 47 290 L 48 288 L 51 288 L 57 285 L 59 285 L 65 282 L 67 282 L 70 279 L 72 275 L 75 272 L 75 271 L 79 266 L 85 254 L 93 246 L 94 244 L 94 242 L 96 238 L 98 236 L 98 235 L 101 231 L 101 225 L 102 224 L 102 221 L 103 220 L 103 218 L 109 211 L 110 211 L 115 206 L 119 204 L 121 204 L 122 203 L 129 203 L 130 204 L 132 204 Z M 244 48 L 246 49 L 251 54 L 249 57 L 248 62 L 244 70 L 244 72 L 243 73 L 243 75 L 242 76 L 241 81 L 239 85 L 237 87 L 237 88 L 235 90 L 235 91 L 232 95 L 232 97 L 231 98 L 231 101 L 230 102 L 230 105 L 229 106 L 229 108 L 228 109 L 227 114 L 225 117 L 225 119 L 223 122 L 222 127 L 220 130 L 220 132 L 218 136 L 216 138 L 214 143 L 212 145 L 211 148 L 209 150 L 208 153 L 206 155 L 205 155 L 205 157 L 210 165 L 210 170 L 211 171 L 211 173 L 215 177 L 219 185 L 219 187 L 221 190 L 222 195 L 224 198 L 224 200 L 226 203 L 226 205 L 229 211 L 232 214 L 234 218 L 234 220 L 235 222 L 243 230 L 247 238 L 247 240 L 248 241 L 248 244 L 250 248 L 250 251 L 251 252 L 251 255 L 252 256 L 253 261 L 257 268 L 257 270 L 259 274 L 259 277 L 263 283 L 263 287 L 260 290 L 253 290 L 252 289 L 249 289 L 248 290 L 243 290 L 242 291 L 240 291 L 237 289 L 235 290 L 232 288 L 234 286 L 237 286 L 241 284 L 244 281 L 245 281 L 248 275 L 246 272 L 246 270 L 245 269 L 245 267 L 244 266 L 244 264 L 242 260 L 240 258 L 240 257 L 238 255 L 236 251 L 231 245 L 226 234 L 218 227 L 215 221 L 210 216 L 209 216 L 199 206 L 199 205 L 191 197 L 191 196 L 183 187 L 180 187 L 179 188 L 177 188 L 174 191 L 173 191 L 168 197 L 167 197 L 160 203 L 160 205 L 158 209 L 153 214 L 147 217 L 142 217 L 140 218 L 139 217 L 139 215 L 140 214 L 140 211 L 139 210 L 139 208 L 138 206 L 135 203 L 131 201 L 121 201 L 115 204 L 114 204 L 113 202 L 114 200 L 119 195 L 119 193 L 122 187 L 125 184 L 125 183 L 133 175 L 134 175 L 136 173 L 142 170 L 144 170 L 145 169 L 147 169 L 148 168 L 150 168 L 154 166 L 161 159 L 163 159 L 163 158 L 167 154 L 168 152 L 168 148 L 171 142 L 177 136 L 178 136 L 180 134 L 184 132 L 189 131 L 190 130 L 190 129 L 192 127 L 194 123 L 197 120 L 197 119 L 200 116 L 200 115 L 209 106 L 209 105 L 212 102 L 212 99 L 213 98 L 213 96 L 214 95 L 214 93 L 215 92 L 216 87 L 218 84 L 218 82 L 220 78 L 225 72 L 225 71 L 232 64 L 232 63 L 238 55 L 241 49 L 242 48 Z M 263 19 L 265 22 L 263 26 L 263 29 L 260 33 L 260 42 L 261 43 L 261 46 L 258 49 L 251 51 L 248 48 L 245 47 L 244 45 L 246 43 L 250 34 L 255 29 L 255 27 L 256 26 L 256 24 L 257 22 L 259 20 L 261 19 Z M 210 0 L 209 0 L 209 1 L 206 3 L 204 3 L 202 1 L 201 2 L 202 3 L 204 3 L 206 4 L 208 3 L 210 1 Z" fill="black" fill-rule="evenodd"/>
</svg>
